HIERARCHY
ROOT hip
{
  OFFSET -242.972 75.009 -7.29368
  CHANNELS 6 Xposition Yposition Zposition Zrotation Xrotation Yrotation
  JOINT abdomen
  {
    OFFSET 0 20.6881 -0.73152
    CHANNELS 3 Zrotation Xrotation Yrotation
    JOINT chest
    {
      OFFSET 0 11.7043 -0.48768
      CHANNELS 3 Zrotation Xrotation Yrotation
      JOINT neck
      {
        OFFSET 0 22.1894 -2.19456
        CHANNELS 3 Zrotation Xrotation Yrotation
        JOINT head
        {
          OFFSET -0.24384 7.07133 1.2192
          CHANNELS 3 Zrotation Xrotation Yrotation
          JOINT leftEye
          {
            OFFSET 4.14528 8.04674 8.04672
            CHANNELS 3 Zrotation Xrotation Yrotation
            End Site
            {
              OFFSET 1 0 0
            }
          }
          JOINT rightEye
          {
            OFFSET -3.6576 8.04674 8.04672
            CHANNELS 3 Zrotation Xrotation Yrotation
            End Site
            {
              OFFSET 1 0 0
            }
          }
        }
      }
      JOINT rCollar
      {
        OFFSET -2.68224 19.2634 -4.8768
        CHANNELS 3 Zrotation Xrotation Yrotation
        JOINT rShldr
        {
          OFFSET -8.77824 -1.95073 1.46304
          CHANNELS 3 Zrotation Xrotation Yrotation
          JOINT rForeArm
          {
            OFFSET -28.1742 -1.7115 0.48768
            CHANNELS 3 Zrotation Xrotation Yrotation
            JOINT rHand
            {
              OFFSET -22.5879 0.773209 7.07136
              CHANNELS 3 Zrotation Xrotation Yrotation
              JOINT rThumb1
              {
                OFFSET -1.2192 -0.487915 3.41376
                CHANNELS 3 Zrotation Xrotation Yrotation
                JOINT rThumb2
                {
                  OFFSET -3.37035 -0.52449 3.41376
                  CHANNELS 3 Zrotation Xrotation Yrotation
                  End Site
                  {
                    OFFSET -1.78271 -1.18214 1.43049
                  }
                }
              }
              JOINT rIndex1
              {
                OFFSET -7.75947 0.938293 5.60832
                CHANNELS 3 Zrotation Xrotation Yrotation
                JOINT rIndex2
                {
                  OFFSET -2.54057 -0.884171 1.56538
                  CHANNELS 3 Zrotation Xrotation Yrotation
                  End Site
                  {
                    OFFSET -1.62519 -0.234802 1.16502
                  }
                }
              }
              JOINT rMid1
              {
                OFFSET -8.24714 1.18213 3.41376
                CHANNELS 3 Zrotation Xrotation Yrotation
                JOINT rMid2
                {
                  OFFSET -3.10165 -0.590103 1.0647
                  CHANNELS 3 Zrotation Xrotation Yrotation
                  End Site
                  {
                    OFFSET -2.48547 -0.328903 0.83742
                  }
                }
              }
              JOINT rRing1
              {
                OFFSET -8.82822 0.546677 1.51678
                CHANNELS 3 Zrotation Xrotation Yrotation
                JOINT rRing2
                {
                  OFFSET -2.60934 -0.819778 -0.0198488
                  CHANNELS 3 Zrotation Xrotation Yrotation
                  End Site
                  {
                    OFFSET -2.33842 -0.294052 0.168128
                  }
                }
              }
              JOINT rPinky1
              {
                OFFSET -8.27202 -0.0477905 -0.4584
                CHANNELS 3 Zrotation Xrotation Yrotation
                JOINT rPinky2
                {
                  OFFSET -1.82734 -0.647385 -0.700984
                  CHANNELS 3 Zrotation Xrotation Yrotation
                  End Site
                  {
                    OFFSET -1.69225 -0.51767 -0.607171
                  }
                }
              }
            }
          }
        }
      }
      JOINT lCollar
      {
        OFFSET 2.68224 19.2634 -4.8768
        CHANNELS 3 Zrotation Xrotation Yrotation
        JOINT lShldr
        {
          OFFSET 8.77824 -1.95073 1.46304
          CHANNELS 3 Zrotation Xrotation Yrotation
          JOINT lForeArm
          {
            OFFSET 28.1742 -1.7115 0.48768
            CHANNELS 3 Zrotation Xrotation Yrotation
            JOINT lHand
            {
              OFFSET 22.5879 0.773209 7.07136
              CHANNELS 3 Zrotation Xrotation Yrotation
              JOINT lThumb1
              {
                OFFSET 1.2192 -0.487915 3.41376
                CHANNELS 3 Zrotation Xrotation Yrotation
                JOINT lThumb2
                {
                  OFFSET 3.37035 -0.52449 3.41376
                  CHANNELS 3 Zrotation Xrotation Yrotation
                  End Site
                  {
                    OFFSET 1.78271 -1.18214 1.43049
                  }
                }
              }
              JOINT lIndex1
              {
                OFFSET 7.75947 0.938293 5.60832
                CHANNELS 3 Zrotation Xrotation Yrotation
                JOINT lIndex2
                {
                  OFFSET 2.54057 -0.884171 1.56538
                  CHANNELS 3 Zrotation Xrotation Yrotation
                  End Site
                  {
                    OFFSET 1.62519 -0.234802 1.16502
                  }
                }
              }
              JOINT lMid1
              {
                OFFSET 8.24714 1.18213 3.41376
                CHANNELS 3 Zrotation Xrotation Yrotation
                JOINT lMid2
                {
                  OFFSET 3.10165 -0.590103 1.0647
                  CHANNELS 3 Zrotation Xrotation Yrotation
                  End Site
                  {
                    OFFSET 2.48547 -0.328903 0.83742
                  }
                }
              }
              JOINT lRing1
              {
                OFFSET 8.82822 0.546677 1.51678
                CHANNELS 3 Zrotation Xrotation Yrotation
                JOINT lRing2
                {
                  OFFSET 2.60934 -0.819778 -0.0198488
                  CHANNELS 3 Zrotation Xrotation Yrotation
                  End Site
                  {
                    OFFSET 2.33842 -0.294052 0.168128
                  }
                }
              }
              JOINT lPinky1
              {
                OFFSET 8.27202 -0.0477905 -0.4584
                CHANNELS 3 Zrotation Xrotation Yrotation
                JOINT lPinky2
                {
                  OFFSET 1.82734 -0.647385 -0.700984
                  CHANNELS 3 Zrotation Xrotation Yrotation
                  End Site
                  {
                    OFFSET 1.69225 -0.51767 -0.607171
                  }
                }
              }
            }
          }
        }
      }
    }
  }
  JOINT rButtock
  {
    OFFSET -8.77824 4.35084 1.2192
    CHANNELS 3 Zrotation Xrotation Yrotation
    JOINT rThigh
    {
      OFFSET 0 -1.70687 -2.19456
      CHANNELS 3 Zrotation Xrotation Yrotation
      JOINT rShin
      {
        OFFSET 0 -36.8199 0.73152
        CHANNELS 3 Zrotation Xrotation Yrotation
        JOINT rFoot
        {
          OFFSET 0.73152 -45.1104 -5.12064
          CHANNELS 3 Zrotation Xrotation Yrotation
          End Site
          {
            OFFSET -1.1221 -3.69964 12.103
          }
        }
      }
    }
  }
  JOINT lButtock
  {
    OFFSET 8.77824 4.35084 1.2192
    CHANNELS 3 Zrotation Xrotation Yrotation
    JOINT lThigh
    {
      OFFSET 0 -1.70687 -2.19456
      CHANNELS 3 Zrotation Xrotation Yrotation
      JOINT lShin
      {
        OFFSET 0 -36.8199 0.73152
        CHANNELS 3 Zrotation Xrotation Yrotation
        JOINT lFoot
        {
          OFFSET -0.73152 -45.1104 -5.12064
          CHANNELS 3 Zrotation Xrotation Yrotation
          End Site
          {
            OFFSET 1.1221 -3.69964 12.103
          }
        }
      }
    }
  }
}
MOTION
Frames:	8
Frame Time:	0.00833333
225.661 85.1237 26.6304 -0.330516 -0.0106499 0.0054007 0.435971 -0.0238512 0.01282 0.121274 -0.0396248 0.0210492 -1.23878e-015 -7.95139e-016 -1.2424e-016 -3.57502e-015 3.18055e-015 -4.16205e-016 -0 0 0 -0 0 0 -6.4718e-016 3.76604e-017 0 -9.5935e-015 1.17407e-015 -1.98785e-016 -2.11954e-013 1.0953e-013 -3.81667e-014 -2.50056e-012 1.55971e-013 -2.54444e-013 -5.88389e-012 5.73394e-013 -6.3293e-013 -1.01611e-011 9.85972e-013 -1.10127e-012 -5.87806e-012 5.75283e-013 -6.36111e-013 7.73091 5.47488 0.417314 -5.88368e-012 5.73891e-013 -6.36111e-013 2.90554 0.965183 0.102902 -5.87361e-012 5.7419e-013 -6.34521e-013 10.2786 0.731801 0.0259123 -5.88303e-012 5.71705e-013 -6.2975e-013 2.22167 -0.733487 -0.20892 -5.45567e-016 3.80486e-017 -9.93923e-017 -1.58572e-014 1.26104e-015 -2.5842e-015 -2.26366e-013 -2.18663e-014 0 -2.48772e-012 2.8866e-013 -3.02153e-013 -5.88522e-012 5.76239e-013 -6.39292e-013 -1.01619e-011 9.95514e-013 -1.08536e-012 -5.89357e-012 5.77668e-013 -6.3293e-013 -7.73091 5.47488 -0.417314 -5.88611e-012 5.76376e-013 -6.42472e-013 -2.90554 0.965183 -0.102902 -5.89234e-012 5.76774e-013 -6.33725e-013 -10.2786 0.731801 -0.0259123 -5.88244e-012 5.78066e-013 -6.39292e-013 -2.22167 -0.733487 0.20892 -2.03217e-016 0 -3.88251e-019 0.651983 -4.71109 -0.0694769 -0.000844045 2.99807 0.0038192 -0.326377 1.72324 0.0697874 2.03217e-016 0 3.88251e-019 0.0331429 -2.68025 0.02316 0.00579496 -0.679754 0.0505419 0.296156 3.3702 -0.0966793 
217.115 84.0129 16.1318 -6.66446 -6.12365 26.6067 1.62314 -0.186086 0.62534 0.230054 -3.77711 0.181367 -0.283269 -1.40635 -1.2224 -1.3561 3.57667 -2.43626 -0 0 0 -0 0 0 -2.03001e-014 -4.06863e-013 8.01424e-014 18.9378 10.9707 -3.62792 -5.46132 -2.79171 8.16622 0.0023516 -1.1427 -0.160511 -3.05228e-010 -1.91576e-010 6.317e-010 -5.2759e-010 -3.31782e-010 1.0923e-009 -3.05223e-010 -1.91576e-010 6.31697e-010 7.73091 5.47488 0.417314 -3.05228e-010 -1.91577e-010 6.31699e-010 2.90554 0.965183 0.102902 -3.05219e-010 -1.91577e-010 6.31701e-010 10.2786 0.731801 0.0259123 -3.05229e-010 -1.91578e-010 6.31708e-010 2.22167 -0.733487 -0.20892 -2.02323e-014 -4.06865e-013 8.00023e-014 -20.159 1.20972 3.66931 5.14636 -2.55764 -7.78673 -0.0352377 -4.17898 0.581753 -5.80846e-010 1.05214e-009 -7.17715e-011 -1.00708e-009 1.81636e-009 -1.28518e-010 -5.80854e-010 1.05214e-009 -7.17653e-011 -7.73091 5.47488 -0.417314 -5.80847e-010 1.05214e-009 -7.17715e-011 -2.90554 0.965183 -0.102902 -5.80854e-010 1.05214e-009 -7.17663e-011 -10.2786 0.731801 -0.0259123 -5.80843e-010 1.05214e-009 -7.17723e-011 -2.22167 -0.733487 0.20892 -2.03217e-016 0 -3.88251e-019 4.82268 -5.39266 7.81744 -0.0104314 3.16562 -0.120707 0.255807 -4.47205 -8.194 2.03217e-016 0 3.88251e-019 -1.41779 -2.92657 -7.78927 0.00659931 -1.29142 0.0651522 0.463411 -2.10471 7.59958 
217.159 84.0007 16.1332 -8.13619 -8.15504 55.2177 2.88371 -0.356521 1.27523 0.369944 -7.72757 0.35424 -0.641163 -2.89753 -2.51658 -2.47997 7.36434 -5.04333 -0 0 0 -0 0 0 -4.09768e-014 -9.02755e-013 1.70362e-013 40.5734 22.4006 -7.92963 -10.3754 -5.55136 16.8562 -0.00227617 -2.30617 -0.324171 -6.59633e-010 -4.10522e-010 1.35803e-009 -1.14022e-009 -7.10918e-010 2.34818e-009 -6.59628e-010 -4.10524e-010 1.35803e-009 7.73091 5.47488 0.417314 -6.59632e-010 -4.10525e-010 1.35804e-009 2.90554 0.965183 0.102902 -6.59624e-010 -4.10526e-010 1.35804e-009 10.2786 0.731801 0.0259123 -6.59636e-010 -4.10525e-010 1.35805e-009 2.22167 -0.733487 -0.20892 -4.09438e-014 -9.02758e-013 1.70178e-013 -41.6388 2.4096 7.54069 9.81806 -5.08722 -16.0389 0.0207047 -8.55696 1.20179 -1.24293e-009 2.2633e-009 -1.49711e-010 -2.15509e-009 3.90718e-009 -2.68463e-010 -1.24294e-009 2.2633e-009 -1.49705e-010 -7.73091 5.47488 -0.417314 -1.24293e-009 2.26331e-009 -1.49708e-010 -2.90554 0.965183 -0.102902 -1.24294e-009 2.2633e-009 -1.49706e-010 -10.2786 0.731801 -0.0259123 -1.24293e-009 2.2633e-009 -1.49713e-010 -2.22167 -0.733487 0.20892 -2.03217e-016 0 -3.88251e-019 9.43892 -5.96174 16.1703 -0.0196362 3.34555 -0.251104 -1.05955 -10.5881 -17.1938 2.03217e-016 0 3.88251e-019 -3.02278 -3.09303 -16.0564 0.00778049 -1.94891 0.0811686 2.23807 -7.6825 15.8384 
217.186 83.9925 16.1276 -8.32875 -3.72284 79.981 4.00787 -0.510321 1.85044 0.511438 -11.2517 0.510636 -1.03011 -4.21135 -3.67602 -3.14498 10.6518 -7.42314 -0 0 0 -0 0 0 -5.96061e-014 -1.22067e-012 2.40427e-013 61.5987 32.3345 -12.6754 -14.0595 -7.69603 24.7066 -0.0121815 -3.428 -0.482299 -9.03917e-010 -5.75875e-010 1.89636e-009 -1.56245e-009 -9.97317e-010 3.27912e-009 -9.03913e-010 -5.7588e-010 1.89636e-009 7.73091 5.47488 0.417314 -9.03916e-010 -5.7588e-010 1.89637e-009 2.90554 0.965183 0.102902 -9.03908e-010 -5.75881e-010 1.89637e-009 10.2786 0.731801 0.0259123 -9.03922e-010 -5.75879e-010 1.89638e-009 2.22167 -0.733487 -0.20892 -5.96057e-014 -1.22067e-012 2.40206e-013 -60.9394 3.56965 11.0271 13.4044 -7.10728 -23.5283 0.15412 -12.5317 1.78311 -1.73077e-009 3.15527e-009 -2.14036e-010 -3.00092e-009 5.44708e-009 -3.83384e-010 -1.73077e-009 3.15526e-009 -2.1403e-010 -7.73091 5.47488 -0.417314 -1.73077e-009 3.15528e-009 -2.1403e-010 -2.90554 0.965183 -0.102902 -1.73078e-009 3.15527e-009 -2.14032e-010 -10.2786 0.731801 -0.0259123 -1.73076e-009 3.15527e-009 -2.14038e-010 -2.22167 -0.733487 0.20892 -2.03217e-016 0 -3.88251e-019 13.6987 -6.33201 23.6393 -0.0274171 3.50068 -0.369886 -3.92006 -15.4111 -25.6306 2.03217e-016 0 3.88251e-019 -4.5079 -3.21298 -23.4224 0.00914498 -2.51474 0.094421 5.16166 -12.054 23.5251 
217.241 83.9823 16.1213 -9.89232 2.79727 96.0766 4.78372 -0.622755 2.23893 0.610883 -13.7103 0.617586 -1.3681 -5.08912 -4.49004 -3.33071 12.7645 -9.12175 -0 0 0 -0 0 0 -7.3117e-014 -1.09362e-012 2.6011e-013 77.5493 39.0668 -16.8648 -16.2775 -8.94759 30.2606 -0.0243028 -4.44582 -0.626089 -8.729e-010 -6.07247e-010 1.96469e-009 -1.5087e-009 -1.05187e-009 3.3977e-009 -8.72896e-010 -6.07253e-010 1.96469e-009 7.73091 5.47488 0.417314 -8.72899e-010 -6.07253e-010 1.9647e-009 2.90554 0.965183 0.102902 -8.72892e-010 -6.07254e-010 1.9647e-009 10.2786 0.731801 0.0259123 -8.72906e-010 -6.07251e-010 1.96471e-009 2.22167 -0.733487 -0.20892 -7.31436e-014 -1.09363e-012 2.59861e-013 -74.5082 4.67865 13.538 15.659 -8.37421 -28.9559 0.30415 -15.503 2.23414 -1.78298e-009 3.24926e-009 -2.44324e-010 -3.09128e-009 5.60969e-009 -4.35746e-010 -1.78299e-009 3.24926e-009 -2.44317e-010 -7.73091 5.47488 -0.417314 -1.78298e-009 3.24928e-009 -2.44317e-010 -2.90554 0.965183 -0.102902 -1.78299e-009 3.24926e-009 -2.4432e-010 -10.2786 0.731801 -0.0259123 -1.78298e-009 3.24927e-009 -2.44327e-010 -2.22167 -0.733487 0.20892 -2.03217e-016 0 -3.88251e-019 16.7239 -6.53686 28.8674 -0.0332083 3.59386 -0.459538 -6.92553 -18.3984 -31.774 2.03217e-016 0 3.88251e-019 -5.59975 -3.3644 -28.5322 0.0102268 -2.85142 0.100719 7.84273 -14.4174 29.2288 
217.309 83.971 16.128 -11.1523 5.86587 102.156 5.06259 -0.672014 2.36243 0.628904 -14.6781 0.648459 -1.58646 -5.35152 -4.81284 -3.1169 13.2426 -9.78307 -0 0 0 -0 0 0 -8.68643e-014 1.73042e-014 1.93251e-013 84.2244 41.7927 -18.8131 -17.0944 -9.39145 32.5 -0.0358735 -5.31358 -0.74899 -3.15167e-010 -4.05793e-010 1.23543e-009 -5.44333e-010 -7.03833e-010 2.13821e-009 -3.15163e-010 -4.05798e-010 1.23543e-009 7.73091 5.47488 0.417314 -3.15166e-010 -4.05798e-010 1.23544e-009 2.90554 0.965183 0.102902 -3.15159e-010 -4.05798e-010 1.23544e-009 10.2786 0.731801 0.0259123 -3.15172e-010 -4.05795e-010 1.23545e-009 2.22167 -0.733487 -0.20892 -8.69138e-014 1.73006e-014 1.92989e-013 -79.9261 5.79109 14.6984 16.6275 -8.95705 -31.4393 0.397783 -17.1461 2.48959 -1.06036e-009 1.91792e-009 -2.57272e-010 -1.83765e-009 3.31217e-009 -4.51387e-010 -1.06037e-009 1.91792e-009 -2.57264e-010 -7.73091 5.47488 -0.417314 -1.06036e-009 1.91793e-009 -2.57269e-010 -2.90554 0.965183 -0.102902 -1.06037e-009 1.91792e-009 -2.57269e-010 -10.2786 0.731801 -0.0259123 -1.06036e-009 1.91792e-009 -2.57276e-010 -2.22167 -0.733487 0.20892 -2.03217e-016 0 -3.88251e-019 17.8896 -6.68527 30.9541 -0.0370409 3.59758 -0.51048 -8.5972 -19.895 -34.1845 2.03217e-016 0 3.88251e-019 -6.1129 -3.65283 -30.4446 0.0105898 -2.84517 0.0962202 8.82616 -14.667 31.7596 
217.401 83.9531 16.1362 -11.1677 5.35043 101.549 4.98598 -0.676448 2.29679 0.584086 -14.5811 0.6234 -1.70638 -5.17628 -4.78331 -2.68312 12.5698 -9.68529 -0 0 0 -0 0 0 -1.00428e-013 1.81382e-012 6.5338e-014 83.5996 41.8251 -18.6406 -17.0489 -9.38563 32.3482 -0.0467074 -6.07438 -0.857031 6.12063e-010 -4.01895e-011 -5.68846e-011 1.05884e-009 -7.19382e-011 -9.41622e-011 6.12067e-010 -4.01924e-011 -5.68876e-011 7.73091 5.47488 0.417314 6.12063e-010 -4.01909e-011 -5.68814e-011 2.90554 0.965183 0.102902 6.12071e-010 -4.0191e-011 -5.68797e-011 10.2786 0.731801 0.0259123 6.12059e-010 -4.01884e-011 -5.68715e-011 2.22167 -0.733487 -0.20892 -1.00497e-013 1.81382e-012 6.5074e-014 -79.4781 6.91858 14.8922 16.8095 -9.16436 -31.7967 0.428313 -17.8383 2.59642 2.07857e-010 -4.16844e-010 -2.56391e-010 3.6233e-010 -7.17266e-010 -4.38375e-010 2.07854e-010 -4.16846e-010 -2.56381e-010 -7.73091 5.47488 -0.417314 2.07856e-010 -4.16843e-010 -2.56395e-010 -2.90554 0.965183 -0.102902 2.07854e-010 -4.16843e-010 -2.56388e-010 -10.2786 0.731801 -0.0259123 2.07862e-010 -4.16839e-010 -2.56396e-010 -2.22167 -0.733487 0.20892 -2.03217e-016 0 -3.88251e-019 17.6964 -6.84437 30.7953 -0.0396551 3.53753 -0.533658 -8.93856 -20.636 -33.7963 2.03217e-016 0 3.88251e-019 -6.18899 -4.06769 -30.0754 0.0104877 -2.59504 0.0840611 8.32786 -13.6253 31.9552 
217.501 83.9256 16.1651 -10.7081 3.52391 98.2024 4.7769 -0.671613 2.16117 0.516783 -14.0572 0.577697 -1.77394 -4.84202 -4.61574 -2.20082 11.5048 -9.29774 -0 0 0 -0 0 0 -1.02075e-013 3.30704e-012 -6.1388e-014 80.038 40.7771 -17.6095 -16.6575 -9.19867 31.2303 -0.0576435 -6.79951 -0.960238 1.46102e-009 3.18669e-010 -1.3511e-009 2.52675e-009 5.48672e-010 -2.33041e-009 1.46103e-009 3.18668e-010 -1.3511e-009 7.73091 5.47488 0.417314 1.46102e-009 3.1867e-010 -1.35109e-009 2.90554 0.965183 0.102902 1.46103e-009 3.18671e-010 -1.35109e-009 10.2786 0.731801 0.0259123 1.46102e-009 3.18673e-010 -1.35109e-009 2.22167 -0.733487 -0.20892 -1.02156e-013 3.30705e-012 -6.16469e-014 -76.6625 7.99375 14.6629 16.6732 -9.21749 -31.2561 0.424073 -18.0329 2.62395 1.43037e-009 -2.6599e-009 -2.0148e-010 2.48271e-009 -4.58839e-009 -3.32525e-010 1.43037e-009 -2.6599e-009 -2.01468e-010 -7.73091 5.47488 -0.417314 1.43037e-009 -2.6599e-009 -2.01491e-010 -2.90554 0.965183 -0.102902 1.43037e-009 -2.6599e-009 -2.01478e-010 -10.2786 0.731801 -0.0259123 1.43038e-009 -2.65989e-009 -2.01485e-010 -2.22167 -0.733487 0.20892 -2.03217e-016 0 -3.88251e-019 16.9582 -7.0205 29.7308 -0.0416111 3.45638 -0.542342 -8.63247 -20.9845 -32.2778 2.03217e-016 0 3.88251e-019 -6.0578 -4.51909 -28.8556 0.0103738 -2.28272 0.0705062 7.31076 -12.1347 31.2725 
